PathFileType	4	(X/Y/Z)	C:\Users\chris\Documents\GitHub\baseballds\vids\pitch5_Sports2D\pitch5_Sports2D_px_person02.trc
DataRate	CameraRate	NumFrames	NumMarkers	Units	OrigDataRate	OrigDataStartFrame	OrigNumFrames
30	30	4	22	m	30	55	149
Frame#	Time	Hip			RHip			RKnee			RAnkle			RBigToe			RSmallToe			RHeel			LHip			LKnee			LAnkle			LBigToe			LSmallToe			LHeel			Neck			Head			Nose			RShoulder			RElbow			RWrist			LShoulder			LElbow			LWrist		
		X1	Y1	Z1	X2	Y2	Z2	X3	Y3	Z3	X4	Y4	Z4	X5	Y5	Z5	X6	Y6	Z6	X7	Y7	Z7	X8	Y8	Z8	X9	Y9	Z9	X10	Y10	Z10	X11	Y11	Z11	X12	Y12	Z12	X13	Y13	Z13	X14	Y14	Z14	X15	Y15	Z15	X16	Y16	Z16	X17	Y17	Z17	X18	Y18	Z18	X19	Y19	Z19	X20	Y20	Z20	X21	Y21	Z21	X22	Y22	Z22
55	1.8333333333333333	1300.1555167321878	488.0547023214594	0.0	1307.548409409555	492.2735291071269	0.0	1295.8559239748208	533.7461511391464	0.0	1277.4821507377462	563.7388887924776	0.0	1279.1910935639985	585.474859928119	0.0	1279.4600634546464	585.8646867742572	0.0	1270.8899670221995	568.2408361890597	0.0	1291.3984283357984	492.484029105908	0.0	1306.386479513818	533.3437533881068	0.0	1308.8302475105406	572.1304356405238	0.0	1317.4161858920008	577.9402984823317	0.0	1317.554569558316	577.7642199210601	0.0	1307.395452227941	582.308268058033	0.0	1310.802919409636	435.3624982613989	0.0	1313.2536085200234	420.9839054962867	0.0	1314.5338487734143	424.73161287298507	0.0	1327.5016323364212	443.7360874279615	0.0	1337.0260579697165	467.73453455848386	0.0	1326.9966818848109	469.2751899246232	0.0	1291.6936006483181	440.75203442050133	0.0	1274.3273174100793	454.5399468157709	0.0	1279.81323481229	472.42827392411203	0.0
56	1.8666666666666667	1308.4159742836985	487.60009229185266	0.0	1316.2537711862556	491.3218307942273	0.0	1303.5742000468917	533.7459687151941	0.0	1282.9101464050593	556.4611885257868	0.0	1282.885752081914	577.9915880788725	0.0	1282.4987349748517	578.7364736791955	0.0	1275.844185371322	558.5229690805614	0.0	1299.3115294015408	491.53694227075175	0.0	1312.4690319123097	535.8639924613499	0.0	1319.8725857851123	573.2879340491721	0.0	1329.8121861575585	576.6746642597504	0.0	1329.225202907737	576.4694468393279	0.0	1319.1545898625736	582.3234529928582	0.0	1317.0704345092968	435.31737523591386	0.0	1319.5000741371546	418.92777207451	0.0	1319.0711431872212	424.74430073960895	0.0	1333.9780673886435	443.45508789800147	0.0	1344.4116899614417	467.5370405686116	0.0	1335.093826132243	471.68514676404607	0.0	1298.5796253388298	441.0200030011231	0.0	1281.952304781745	455.76771562995884	0.0	1288.3873893222722	472.97252683422715	0.0
57	1.9	1316.4087640754553	488.9058495491253	0.0	1324.756759149137	492.0274806560105	0.0	1313.6536221502301	535.1574619078266	0.0	1290.3943487831934	548.5421926550201	0.0	1287.2286479402596	568.9737620655877	0.0	1286.0349587332485	568.5044453327288	0.0	1282.371715270242	547.9597814177268	0.0	1306.999762321714	492.052330915295	0.0	1318.1410624405876	538.5831323129603	0.0	1327.7219159828685	575.0474684532428	0.0	1338.6968985025865	577.9437751581153	0.0	1337.1580398929248	577.6496757443707	0.0	1327.0597458606007	582.9827515875414	0.0	1323.3217422808564	437.1023126717193	0.0	1325.897214789481	417.3434940767577	0.0	1324.5418648674006	426.0426470508836	0.0	1340.377985739773	444.83919859105157	0.0	1350.6865951428679	468.9735796920077	0.0	1341.266787203187	474.30617769879734	0.0	1304.5993457962938	443.2694892078871	0.0	1289.032218951103	459.01535003101776	0.0	1296.130437977823	475.66910952867033	0.0
58	1.9333333333333333	1324.0390010582535	491.67378197872887	0.0	1332.7371167575986	494.1909510174224	0.0	1325.3370426394863	538.1615151167964	0.0	1300.06662769873	541.8048533617698	0.0	1293.4017027948287	559.616212436931	0.0	1291.9108822531894	557.6287382708219	0.0	1291.43665355166	538.6906182305956	0.0	1314.3904413688322	493.96706150566536	0.0	1324.089728026829	540.8593846467097	0.0	1333.0432596748306	577.3500657588083	0.0	1344.275184380454	581.7261732603969	0.0	1342.1588504420067	581.1340419144377	0.0	1331.705799321816	584.3745987910127	0.0	1329.5435286131628	440.6930995166376	0.0	1332.2840046155898	417.6416598617226	0.0	1330.83745334153	428.78723644375515	0.0	1346.5787212339878	447.7677007681351	0.0	1356.1951141611262	471.5513673236375	0.0	1346.9927539858334	477.5337096533094	0.0	1310.255532747402	447.2319399670741	0.0	1295.708010370442	463.90773431168867	0.0	1303.9339231247181	479.610500365658	0.0
